<svg width="162" height="181" viewBox="0 0 162 181" fill="none" xmlns="http://www.w3.org/2000/svg">
<g clip-path="url(#clip0_423_1223)">
<path d="M156.836 178.432C156.836 177.051 157.957 175.93 159.338 175.93C160.719 175.93 161.84 177.051 161.84 178.432C161.84 179.812 160.719 180.933 159.338 180.933C157.957 180.933 156.836 179.812 156.836 178.432Z" fill="#3165F7"/>
<path d="M117.648 178.432C117.648 177.051 118.769 175.93 120.15 175.93C121.531 175.93 122.651 177.051 122.651 178.432C122.651 179.812 121.531 180.933 120.15 180.933C118.769 180.933 117.648 179.812 117.648 178.432Z" fill="#3165F7"/>
<path d="M78.4688 178.432C78.4688 177.051 79.5896 175.93 80.9704 175.93C82.3511 175.93 83.472 177.051 83.472 178.432C83.472 179.812 82.3511 180.933 80.9704 180.933C79.587 180.933 78.4688 179.812 78.4688 178.432Z" fill="#3165F7"/>
<path d="M39.2891 178.432C39.2891 177.051 40.41 175.93 41.7907 175.93C43.1715 175.93 44.2924 177.051 44.2924 178.432C44.2924 179.812 43.1715 180.933 41.7907 180.933C40.41 180.933 39.2891 179.812 39.2891 178.432Z" fill="#3165F7"/>
<path d="M0.101562 178.432C0.101562 177.051 1.22244 175.93 2.60319 175.93C3.98394 175.93 5.10481 177.051 5.10481 178.432C5.10481 179.812 3.98394 180.933 2.60319 180.933C1.21981 180.933 0.101562 179.812 0.101562 178.432Z" fill="#3165F7"/>
<path d="M156.836 143.416C156.836 142.035 157.957 140.914 159.338 140.914C160.719 140.914 161.84 142.035 161.84 143.416C161.84 144.796 160.719 145.917 159.338 145.917C157.957 145.917 156.836 144.796 156.836 143.416Z" fill="#3165F7"/>
<path d="M117.648 143.416C117.648 142.035 118.769 140.914 120.15 140.914C121.531 140.914 122.651 142.035 122.651 143.416C122.651 144.796 121.531 145.917 120.15 145.917C118.769 145.917 117.648 144.796 117.648 143.416Z" fill="#3165F7"/>
<path d="M78.4688 143.416C78.4688 142.035 79.5896 140.914 80.9704 140.914C82.3511 140.914 83.472 142.035 83.472 143.416C83.472 144.796 82.3511 145.917 80.9704 145.917C79.587 145.917 78.4688 144.796 78.4688 143.416Z" fill="#3165F7"/>
<path d="M39.2891 143.416C39.2891 142.035 40.41 140.914 41.7907 140.914C43.1715 140.914 44.2924 142.035 44.2924 143.416C44.2924 144.796 43.1715 145.917 41.7907 145.917C40.41 145.917 39.2891 144.796 39.2891 143.416Z" fill="#3165F7"/>
<path d="M0.101562 143.416C0.101562 142.035 1.22244 140.914 2.60319 140.914C3.98394 140.914 5.10481 142.035 5.10481 143.416C5.10481 144.796 3.98394 145.917 2.60319 145.917C1.21981 145.917 0.101562 144.796 0.101562 143.416Z" fill="#3165F7"/>
<path d="M156.836 108.4C156.836 107.019 157.957 105.898 159.338 105.898C160.719 105.898 161.84 107.019 161.84 108.4C161.84 109.781 160.719 110.902 159.338 110.902C157.957 110.902 156.836 109.783 156.836 108.4Z" fill="#3165F7"/>
<path d="M120.15 110.902C121.531 110.902 122.651 109.782 122.651 108.4C122.651 107.018 121.531 105.898 120.15 105.898C118.768 105.898 117.648 107.018 117.648 108.4C117.648 109.782 118.768 110.902 120.15 110.902Z" fill="#3165F7"/>
<path d="M80.9704 110.902C82.352 110.902 83.472 109.782 83.472 108.4C83.472 107.018 82.352 105.898 80.9704 105.898C79.5888 105.898 78.4688 107.018 78.4688 108.4C78.4688 109.782 79.5888 110.902 80.9704 110.902Z" fill="#3165F7"/>
<path d="M39.2891 108.4C39.2891 107.019 40.41 105.898 41.7907 105.898C43.1715 105.898 44.2924 107.019 44.2924 108.4C44.2924 109.781 43.1715 110.902 41.7907 110.902C40.41 110.902 39.2891 109.783 39.2891 108.4Z" fill="#3165F7"/>
<path d="M0.101562 108.4C0.101562 107.019 1.22244 105.898 2.60319 105.898C3.98394 105.898 5.10481 107.019 5.10481 108.4C5.10481 109.781 3.98394 110.902 2.60319 110.902C1.21981 110.902 0.101562 109.783 0.101562 108.4Z" fill="#3165F7"/>
<path d="M156.836 73.3923C156.836 72.0115 157.957 70.8906 159.338 70.8906C160.719 70.8906 161.84 72.0115 161.84 73.3923C161.84 74.773 160.719 75.8939 159.338 75.8939C157.957 75.8913 156.836 74.773 156.836 73.3923Z" fill="#3165F7"/>
<path d="M120.15 75.8939C121.531 75.8939 122.651 74.7739 122.651 73.3923C122.651 72.0107 121.531 70.8906 120.15 70.8906C118.768 70.8906 117.648 72.0107 117.648 73.3923C117.648 74.7739 118.768 75.8939 120.15 75.8939Z" fill="#3165F7"/>
<path d="M80.9704 75.8939C82.352 75.8939 83.472 74.7739 83.472 73.3923C83.472 72.0107 82.352 70.8906 80.9704 70.8906C79.5888 70.8906 78.4688 72.0107 78.4688 73.3923C78.4688 74.7739 79.5888 75.8939 80.9704 75.8939Z" fill="#3165F7"/>
<path d="M39.2891 73.3923C39.2891 72.0115 40.41 70.8906 41.7907 70.8906C43.1715 70.8906 44.2924 72.0115 44.2924 73.3923C44.2924 74.773 43.1715 75.8939 41.7907 75.8939C40.41 75.8939 39.2891 74.773 39.2891 73.3923Z" fill="#3165F7"/>
<path d="M0.101562 73.3923C0.101562 72.0115 1.22244 70.8906 2.60319 70.8906C3.98394 70.8906 5.10481 72.0115 5.10481 73.3923C5.10481 74.773 3.98394 75.8939 2.60319 75.8939C1.21981 75.8913 0.101562 74.773 0.101562 73.3923Z" fill="#3165F7"/>
<path d="M156.836 38.3766C156.836 36.9959 157.957 35.875 159.338 35.875C160.719 35.875 161.84 36.9959 161.84 38.3766C161.84 39.7574 160.719 40.8782 159.338 40.8782C157.957 40.8756 156.836 39.7574 156.836 38.3766Z" fill="#3165F7"/>
<path d="M120.15 40.8782C121.531 40.8782 122.651 39.7582 122.651 38.3766C122.651 36.995 121.531 35.875 120.15 35.875C118.768 35.875 117.648 36.995 117.648 38.3766C117.648 39.7582 118.768 40.8782 120.15 40.8782Z" fill="#3165F7"/>
<path d="M80.9704 40.8782C82.352 40.8782 83.472 39.7582 83.472 38.3766C83.472 36.995 82.352 35.875 80.9704 35.875C79.5888 35.875 78.4688 36.995 78.4688 38.3766C78.4688 39.7582 79.5888 40.8782 80.9704 40.8782Z" fill="#3165F7"/>
<path d="M39.2891 38.3766C39.2891 36.9959 40.41 35.875 41.7907 35.875C43.1715 35.875 44.2924 36.9959 44.2924 38.3766C44.2924 39.7574 43.1715 40.8782 41.7907 40.8782C40.41 40.8782 39.2891 39.7574 39.2891 38.3766Z" fill="#3165F7"/>
<path d="M0.101562 38.3766C0.101562 36.9959 1.22244 35.875 2.60319 35.875C3.98394 35.875 5.10481 36.9959 5.10481 38.3766C5.10481 39.7574 3.98394 40.8782 2.60319 40.8782C1.21981 40.8756 0.101562 39.7574 0.101562 38.3766Z" fill="#3165F7"/>
<path d="M156.836 3.361C156.836 1.98025 157.957 0.859375 159.338 0.859375C160.719 0.859375 161.84 1.98025 161.84 3.361C161.84 4.74175 160.719 5.86262 159.338 5.86262C157.957 5.86262 156.836 4.74175 156.836 3.361Z" fill="#3165F7"/>
<path d="M117.648 3.361C117.648 1.98025 118.769 0.859375 120.15 0.859375C121.531 0.859375 122.651 1.98025 122.651 3.361C122.651 4.74175 121.531 5.86262 120.15 5.86262C118.769 5.86262 117.648 4.74175 117.648 3.361Z" fill="#3165F7"/>
<path d="M78.4688 3.361C78.4688 1.98025 79.5896 0.859375 80.9704 0.859375C82.3511 0.859375 83.472 1.98025 83.472 3.361C83.472 4.74175 82.3511 5.86262 80.9704 5.86262C79.587 5.86262 78.4688 4.74175 78.4688 3.361Z" fill="#3165F7"/>
<path d="M39.2891 3.361C39.2891 1.98025 40.41 0.859375 41.7907 0.859375C43.1715 0.859375 44.2924 1.98025 44.2924 3.361C44.2924 4.74175 43.1715 5.86262 41.7907 5.86262C40.41 5.86262 39.2891 4.74175 39.2891 3.361Z" fill="#3165F7"/>
<path d="M0.101562 3.361C0.101562 1.98025 1.22244 0.859375 2.60319 0.859375C3.98394 0.859375 5.10481 1.98025 5.10481 3.361C5.10481 4.74175 3.98394 5.86262 2.60319 5.86262C1.21981 5.86262 0.101562 4.74175 0.101562 3.361Z" fill="#3165F7"/>
</g>
<defs>
<clipPath id="clip0_423_1223">
<rect width="162" height="181" fill="white"/>
</clipPath>
</defs>
</svg>
