<svg width="725" height="171" viewBox="0 0 725 171" fill="none" xmlns="http://www.w3.org/2000/svg">
<path d="M229.513 121.713C224.283 121.713 219.597 120.864 215.454 119.166C211.311 117.468 207.983 114.955 205.47 111.628C203.025 108.3 201.735 104.293 201.599 99.6063H220.14C220.412 102.255 221.329 104.293 222.891 105.719C224.453 107.077 226.49 107.756 229.003 107.756C231.584 107.756 233.622 107.179 235.116 106.024C236.61 104.802 237.357 103.138 237.357 101.033C237.357 99.2668 236.746 97.8066 235.523 96.652C234.369 95.4974 232.908 94.5466 231.143 93.7995C229.445 93.0524 227 92.2035 223.808 91.2526C219.189 89.8264 215.42 88.4001 212.5 86.9739C209.579 85.5476 207.066 83.4422 204.961 80.6577C202.855 77.8731 201.803 74.2396 201.803 69.7571C201.803 63.1013 204.214 57.9057 209.036 54.1703C213.858 50.367 220.14 48.4653 227.883 48.4653C235.761 48.4653 242.111 50.367 246.933 54.1703C251.755 57.9057 254.336 63.1352 254.676 69.859H235.829C235.693 67.5498 234.844 65.75 233.282 64.4596C231.72 63.1013 229.716 62.4221 227.271 62.4221C225.166 62.4221 223.468 62.9994 222.178 64.154C220.887 65.2406 220.242 66.8367 220.242 68.9421C220.242 71.2512 221.329 73.051 223.502 74.3414C225.675 75.6319 229.071 77.0241 233.69 78.5183C238.308 80.0804 242.043 81.5745 244.896 83.0008C247.816 84.427 250.329 86.4985 252.434 89.2151C254.54 91.9318 255.593 95.4295 255.593 99.7082C255.593 103.783 254.54 107.485 252.434 110.813C250.397 114.14 247.409 116.789 243.469 118.759C239.53 120.728 234.878 121.713 229.513 121.713Z" fill="#3165F7"/>
<path d="M324.023 64.5615L289.08 147.691H273.901L286.126 119.574L263.509 64.5615H279.504L294.072 103.987L308.844 64.5615H324.023ZM362.987 63.7465C369.71 63.7465 375.144 65.8859 379.287 70.1646C383.43 74.3754 385.501 80.2841 385.501 87.8908V121H371.239V89.8264C371.239 85.3439 370.118 81.9141 367.877 79.537C365.635 77.0921 362.579 75.8696 358.708 75.8696C354.769 75.8696 351.645 77.0921 349.336 79.537C347.094 81.9141 345.974 85.3439 345.974 89.8264V121H331.711V64.5615H345.974V71.5908C347.875 69.1458 350.286 67.2442 353.207 65.8859C356.195 64.4596 359.455 63.7465 362.987 63.7465ZM395.396 92.577C395.396 86.872 396.517 81.8122 398.758 77.3977C401.067 72.9831 404.158 69.5873 408.029 67.2102C411.968 64.8332 416.349 63.6446 421.171 63.6446C425.381 63.6446 429.049 64.4936 432.173 66.1915C435.365 67.8894 437.912 70.0288 439.814 72.6096V64.5615H454.178V121H439.814V112.748C437.98 115.397 435.433 117.604 432.173 119.37C428.981 121.068 425.28 121.917 421.069 121.917C416.315 121.917 411.968 120.694 408.029 118.249C404.158 115.804 401.067 112.375 398.758 107.96C396.517 103.478 395.396 98.3499 395.396 92.577ZM439.814 92.7807C439.814 89.317 439.134 86.3626 437.776 83.9177C436.418 81.4047 434.584 79.5031 432.275 78.2127C429.966 76.8543 427.487 76.1752 424.838 76.1752C422.189 76.1752 419.744 76.8204 417.503 78.1108C415.262 79.4012 413.428 81.3029 412.002 83.8158C410.644 86.2608 409.964 89.1812 409.964 92.577C409.964 95.9728 410.644 98.9611 412.002 101.542C413.428 104.055 415.262 105.99 417.503 107.349C419.812 108.707 422.257 109.386 424.838 109.386C427.487 109.386 429.966 108.741 432.275 107.451C434.584 106.092 436.418 104.191 437.776 101.746C439.134 99.2328 439.814 96.2445 439.814 92.7807ZM482.37 72.7114C484.204 70.1306 486.717 67.9913 489.909 66.2934C493.169 64.5275 496.87 63.6446 501.013 63.6446C505.835 63.6446 510.182 64.8332 514.053 67.2102C517.992 69.5873 521.083 72.9831 523.324 77.3977C525.633 81.7443 526.788 86.8041 526.788 92.577C526.788 98.3499 525.633 103.478 523.324 107.96C521.083 112.375 517.992 115.804 514.053 118.249C510.182 120.694 505.835 121.917 501.013 121.917C496.87 121.917 493.203 121.068 490.011 119.37C486.887 117.672 484.34 115.533 482.37 112.952V147.895H468.108V64.5615H482.37V72.7114ZM512.219 92.577C512.219 89.1812 511.506 86.2608 510.08 83.8158C508.722 81.3029 506.888 79.4012 504.579 78.1108C502.338 76.8204 499.893 76.1752 497.244 76.1752C494.663 76.1752 492.218 76.8543 489.909 78.2127C487.668 79.5031 485.834 81.4047 484.408 83.9177C483.049 86.4306 482.37 89.3849 482.37 92.7807C482.37 96.1766 483.049 99.1309 484.408 101.644C485.834 104.157 487.668 106.092 489.909 107.451C492.218 108.741 494.663 109.386 497.244 109.386C499.893 109.386 502.338 108.707 504.579 107.349C506.888 105.99 508.722 104.055 510.08 101.542C511.506 99.029 512.219 96.0407 512.219 92.577ZM568.427 63.7465C575.151 63.7465 580.584 65.8859 584.727 70.1646C588.87 74.3754 590.941 80.2841 590.941 87.8908V121H576.679V89.8264C576.679 85.3439 575.558 81.9141 573.317 79.537C571.076 77.0921 568.02 75.8696 564.148 75.8696C560.209 75.8696 557.085 77.0921 554.776 79.537C552.535 81.9141 551.414 85.3439 551.414 89.8264V121H537.152V64.5615H551.414V71.5908C553.316 69.1458 555.727 67.2442 558.647 65.8859C561.635 64.4596 564.895 63.7465 568.427 63.7465ZM611.737 57.8378C609.224 57.8378 607.119 57.0567 605.421 55.4946C603.791 53.8647 602.976 51.8611 602.976 49.484C602.976 47.107 603.791 45.1374 605.421 43.5753C607.119 41.9453 609.224 41.1303 611.737 41.1303C614.25 41.1303 616.322 41.9453 617.952 43.5753C619.65 45.1374 620.499 47.107 620.499 49.484C620.499 51.8611 619.65 53.8647 617.952 55.4946C616.322 57.0567 614.25 57.8378 611.737 57.8378ZM618.767 64.5615V121H604.504V64.5615H618.767ZM664.032 121L652.418 103.478L642.129 121H626.847L645.287 92.6789L626.644 64.5615H642.74L654.252 81.982L664.643 64.5615H679.924L661.383 92.6789L680.128 121H664.032Z" fill="white"/>
<path d="M85.2954 156.263C75.4783 156.263 66.2525 154.4 57.6182 150.674C48.9838 146.948 41.4731 141.892 35.0861 135.505C28.699 129.118 23.6426 121.607 19.9168 112.973C16.191 104.338 14.3281 95.1126 14.3281 85.2954C14.3281 75.4783 16.191 66.2525 19.9168 57.6182C23.6426 48.9838 28.699 41.4731 35.0861 35.0861C41.4731 28.699 48.9838 23.6426 57.6182 19.9168C66.2525 16.191 75.4783 14.3281 85.2954 14.3281C95.1126 14.3281 104.338 16.191 112.973 19.9168C121.607 23.6426 129.118 28.699 135.505 35.0861C141.892 41.4731 146.948 48.9838 150.674 57.6182C154.4 66.2525 156.263 75.4783 156.263 85.2954C156.263 95.1126 154.4 104.338 150.674 112.973C146.948 121.607 141.892 129.118 135.505 135.505C129.118 141.892 121.607 146.948 112.973 150.674C104.338 154.4 95.1126 156.263 85.2954 156.263ZM77.6664 145.44V130.892C73.5267 130.892 70.0375 129.354 67.1988 126.279C64.3601 123.204 62.9407 119.596 62.9407 115.457V107.65L26.57 71.2794C25.9786 73.645 25.5646 75.981 25.3281 78.2874C25.0915 80.5939 24.9732 82.9299 24.9732 85.2954C24.9732 100.672 29.9705 114.096 39.9651 125.569C49.9596 137.042 62.5268 143.666 77.6664 145.44ZM129.827 126.279C132.43 123.44 134.706 120.424 136.658 117.231C138.61 114.037 140.266 110.696 141.626 107.207C142.986 103.717 143.991 100.139 144.642 96.4728C145.292 92.8061 145.618 89.0804 145.618 85.2954C145.618 72.7579 142.188 61.3735 135.327 51.1424C128.467 40.9113 119.301 33.4302 107.828 28.699V31.8925C107.828 36.0323 106.408 39.6398 103.57 42.715C100.731 45.7903 97.2416 47.3279 93.1018 47.3279H77.6664V62.7633C77.6664 64.7741 76.8681 66.43 75.2713 67.731C73.6745 69.0321 71.8708 69.6826 69.86 69.6826H55.1343V85.2954H100.908C102.919 85.2954 104.575 86.0642 105.876 87.6019C107.177 89.1395 107.828 90.9137 107.828 92.9244V115.457H115.457C118.887 115.457 121.903 116.462 124.505 118.473C127.107 120.483 128.881 123.086 129.827 126.279Z" fill="white"/>
</svg>
